<?xml version="1.0" encoding="UTF-8"?>
<svg version="1.1" xmlns="http://www.w3.org/2000/svg" width="381" height="380">
<path d="M0 0 C2.7299146 -0.01301062 5.45976658 -0.02252343 8.18969727 -0.0300293 C9.34352779 -0.036068 9.34352779 -0.036068 10.52066803 -0.0422287 C15.75649126 -0.05302385 20.7854025 0.19777353 25.9375 1.1875 C26.67508545 1.3220459 27.4126709 1.4565918 28.17260742 1.59521484 C70.63024346 9.70252227 108.44906704 33.17513387 133.40039062 68.63427734 C149.39460398 92.28872293 159.28601148 118.54991347 162 147 C162.18369141 148.794375 162.18369141 148.794375 162.37109375 150.625 C164.0118777 169.74722279 162.0894835 189.73154949 156 208 C152.76879704 207.34593456 150.28005757 206.18015522 147.421875 204.55078125 C146.52122314 204.03990967 145.62057129 203.52903809 144.69262695 203.00268555 C143.72156006 202.44492432 142.75049316 201.88716309 141.75 201.3125 C140.2189563 200.44008667 140.2189563 200.44008667 138.65698242 199.55004883 C130.51928262 194.90144617 122.42357454 190.18126117 114.33691406 185.44458008 C106.58779266 180.9101352 98.80091761 176.44440964 91 172 C81.28236854 166.46242488 71.59858533 160.87027936 61.9440918 155.22314453 C54.5802178 150.91720742 47.20146439 146.63773882 39.8125 142.375 C38.73371582 141.75254395 37.65493164 141.13008789 36.54345703 140.48876953 C31.33728654 137.4882697 26.12554897 134.49810003 20.90234375 131.52734375 C19.94674561 130.98352051 18.99114746 130.43969727 18.0065918 129.87939453 C16.2293029 128.86915273 14.45090114 127.86086503 12.67114258 126.85498047 C0.4580427 119.9160854 0.4580427 119.9160854 -1 117 C-1.09321494 114.73442021 -1.11890152 112.46597996 -1.11523438 110.19848633 C-1.1152092 109.4957855 -1.11518402 108.79308468 -1.11515808 108.06908989 C-1.11332408 105.71919541 -1.10376176 103.3694042 -1.09375 101.01953125 C-1.08995869 99.35577939 -1.08634061 97.69202713 -1.08288574 96.02827454 C-1.03157499 77.47578748 -0.79021713 58.9250664 -0.53643799 40.37445068 C-0.47431227 35.79327719 -0.41503783 31.2120667 -0.35546875 26.63085938 C-0.23964902 17.75386942 -0.1208703 8.87692262 0 0 Z " fill="#6C1447" transform="translate(196,27)"/>
<path d="M0 0 C0.66 0 1.32 0 2 0 C3.30498537 3.94974011 3.11892888 7.92899161 3.08229065 12.03582764 C3.07906152 12.85187226 3.07583239 13.66791687 3.07250541 14.50869012 C3.06042992 17.24640083 3.04105709 19.98401128 3.02172852 22.72167969 C3.01158577 24.68283368 3.00189209 26.64399004 2.99261475 28.60514832 C2.96613332 33.93328647 2.93335383 39.26136964 2.89946485 44.58946514 C2.8651223 50.15616121 2.83654241 55.72288675 2.80735779 61.28961182 C2.75120393 71.83283778 2.6898487 82.37602683 2.62663645 92.91921258 C2.5549286 104.92147372 2.48900146 116.92376443 2.42356598 128.92606115 C2.28882105 153.61741246 2.14679684 178.30871762 2 203 C-0.38844312 203.01208945 -2.77682408 203.02089013 -5.1652832 203.02783203 C-6.17111828 203.03342888 -6.17111828 203.03342888 -7.19727325 203.03913879 C-12.61031294 203.05091773 -17.84045703 202.68064488 -23.1875 201.875 C-24.06768799 201.74375732 -24.94787598 201.61251465 -25.85473633 201.47729492 C-65.41639538 195.09114958 -101.99672919 172.17028179 -125.79467773 140.00854492 C-127.92856612 137.04871476 -129.98116346 134.03924002 -132 131 C-132.58612061 130.11852295 -132.58612061 130.11852295 -133.18408203 129.21923828 C-138.01576044 121.83688784 -141.97877765 114.24275004 -145.4375 106.125 C-145.76766113 105.35260986 -146.09782227 104.58021973 -146.43798828 103.78442383 C-148.55754008 98.61309454 -149.96002128 93.48855069 -151 88 C-141.59080665 82.06470179 -131.98326602 76.51665059 -122.30859375 71.02734375 C-116.51113406 67.73251755 -110.75429029 64.36950444 -105 61 C-81.08048563 46.99847831 -81.08048563 46.99847831 -69.01953125 40.25390625 C-54.53524761 32.14895596 -40.19043905 23.80034354 -25.86328125 15.421875 C-22.01275769 13.17132904 -18.15637998 10.93147463 -14.29296875 8.703125 C-13.40818848 8.19273682 -12.5234082 7.68234863 -11.61181641 7.15649414 C-9.9494991 6.19861603 -8.28644723 5.24201123 -6.62255859 4.28686523 C-3.10721515 2.42379627 -3.10721515 2.42379627 0 0 Z " fill="#6C1447" transform="translate(194,161)"/>
<path d="M0 0 C4.86075547 1.70705103 9.1005342 4.30465907 13.5 6.9375 C14.24636719 7.38029297 14.99273437 7.82308594 15.76171875 8.27929688 C17.20408885 9.1357839 18.64306355 9.99802197 20.078125 10.86669922 C21.67351733 11.80747808 23.31653595 12.66692939 24.96875 13.50390625 C27 15 27 15 27.62180996 17.17628765 C28.05090337 20.38006418 28.10511435 23.44213424 28.08229065 26.67549133 C28.07906152 27.33313183 28.07583239 27.99077234 28.07250541 28.66834134 C28.06047626 30.86399696 28.04109418 33.05952472 28.02172852 35.25512695 C28.01158085 36.83219631 28.00188771 38.40926864 27.99261475 39.98634338 C27.96618261 44.26281154 27.93339319 48.53921011 27.89946485 52.81562448 C27.8650734 57.28657885 27.83652512 61.75757044 27.80735779 66.2285614 C27.75125122 74.69284351 27.68988749 83.15707901 27.62663645 91.62131041 C27.55487636 101.25845873 27.48897474 110.89564432 27.42356598 120.53283751 C27.28889749 140.35527343 27.14686941 160.17765098 27 180 C24.18831904 180.79467142 21.37571498 181.58579233 18.5625 182.375 C17.77939453 182.59671875 16.99628906 182.8184375 16.18945312 183.046875 C10.82469329 184.54812467 5.44746691 185.83307516 0 187 C-1.00963328 182.82784996 -1.14080084 178.80178913 -1.12698364 174.53399658 C-1.12854363 173.79130705 -1.13010362 173.04861751 -1.13171089 172.28342223 C-1.13569305 169.79993045 -1.13254208 167.31650002 -1.12939453 164.83300781 C-1.13074976 163.0506639 -1.13253038 161.26832027 -1.13470459 159.48597717 C-1.13926313 154.64957651 -1.13749619 149.81319718 -1.1343255 144.97679615 C-1.13179534 139.92038223 -1.13414113 134.86397014 -1.13571167 129.80755615 C-1.13753077 121.32043123 -1.13513314 112.83331501 -1.13037109 104.34619141 C-1.12492196 94.5207599 -1.12669689 84.69534912 -1.1321975 74.86991811 C-1.13672765 66.44184416 -1.13737987 58.01377647 -1.13475883 49.5857017 C-1.13319641 44.54825294 -1.13300147 39.51081393 -1.13629532 34.47336578 C-1.13917284 29.7423346 -1.13720056 25.01133031 -1.13140106 20.28030205 C-1.13007312 18.53915642 -1.13046815 16.79800854 -1.13266373 15.05686378 C-1.13537373 12.69056771 -1.13199606 10.32435925 -1.12698364 7.95806885 C-1.12921436 7.26013065 -1.13144509 6.56219244 -1.13374341 5.8431046 C-1.11415034 1.11415034 -1.11415034 1.11415034 0 0 Z " fill="#6C1446" transform="translate(222,176)"/>
<path d="M0 0 C0.18686557 18.55834619 0.32794673 37.11650156 0.41449738 55.67559338 C0.4557524 64.29291922 0.51199777 72.90966062 0.60351562 81.52661133 C0.68324331 89.03702646 0.73486298 96.54701839 0.75270796 104.05784494 C0.76314012 108.03520713 0.78765927 112.0113586 0.84584045 115.98833275 C0.90016963 119.73235741 0.916889 123.47467377 0.90486145 127.21905518 C0.90810993 129.24723612 0.95115113 131.2752311 0.99536133 133.30293274 C0.91623597 142.00954858 0.91623597 142.00954858 -1.75749588 144.89985371 C-3.80125574 146.19634082 -5.74849292 147.12684323 -8 148 C-8.79374023 148.49024658 -9.58748047 148.98049316 -10.40527344 149.4855957 C-12.51475163 150.77041657 -14.63153797 152.04255162 -16.75 153.3125 C-17.49121094 153.76689453 -18.23242188 154.22128906 -18.99609375 154.68945312 C-20.07310547 155.33237305 -20.07310547 155.33237305 -21.171875 155.98828125 C-21.8122168 156.37540283 -22.45255859 156.76252441 -23.11230469 157.16137695 C-25 158 -25 158 -29 158 C-29.11679865 140.0934545 -29.20497104 122.18700785 -29.25906086 104.28016376 C-29.28484322 95.96569905 -29.31999411 87.65147101 -29.37719727 79.3371582 C-29.42703156 72.09043396 -29.45929079 64.84388112 -29.47044247 57.59699029 C-29.47696131 53.75967357 -29.49228219 49.9228472 -29.52865028 46.08568764 C-29.56261077 42.47325516 -29.57305324 38.86151456 -29.56553841 35.24893761 C-29.56756797 33.29245552 -29.59446308 31.33604866 -29.62210083 29.37976074 C-29.57140641 20.76494018 -29.57140641 20.76494018 -26.60758972 16.79728699 C-25.74708511 16.20418228 -24.88658051 15.61107758 -24 15 C-23.24460937 14.34257813 -22.48921875 13.68515625 -21.7109375 13.0078125 C-5.57261411 0 -5.57261411 0 0 0 Z " fill="#6B1344" transform="translate(116,49)"/>
<path d="M0 0 C0.30402567 16.94169594 0.5330866 33.88253793 0.67355824 50.82633972 C0.74052394 58.69423742 0.83176772 66.56043803 0.98071289 74.42724609 C1.11051318 81.28616733 1.19420636 88.14385963 1.22315043 95.00397491 C1.2400666 98.63536275 1.27963577 102.26323599 1.37449074 105.89349365 C1.9301336 127.99324244 1.9301336 127.99324244 -1.26934624 132.97738457 C-4.67064274 136.30070439 -8.46949273 137.63926539 -13 139 C-14.44789025 139.80837369 -15.87476892 140.6574374 -17.26171875 141.56640625 C-18.39222656 142.22511719 -19.52273437 142.88382813 -20.6875 143.5625 C-21.57598633 144.09327148 -21.57598633 144.09327148 -22.48242188 144.63476562 C-23.95336782 145.48654206 -25.47334892 146.25264361 -27 147 C-27.66 146.67 -28.32 146.34 -29 146 C-29.09337499 127.92850483 -29.16394556 109.85707213 -29.20724869 91.78538799 C-29.22788808 83.39468518 -29.2560348 75.0041321 -29.30175781 66.61352539 C-29.34158365 59.30163135 -29.3674228 51.98984574 -29.37635398 44.67784625 C-29.38157601 40.80490215 -29.39387773 36.93226827 -29.42292023 33.05942345 C-29.45002248 29.41587436 -29.45845573 25.772764 -29.45243073 22.12912369 C-29.45405999 20.15081953 -29.47560994 18.17256342 -29.49768066 16.19438171 C-29.49218201 15.02069031 -29.48668335 13.8469989 -29.48101807 12.63774109 C-29.48470524 11.61547267 -29.48839241 10.59320425 -29.49219131 9.539958 C-29 7 -29 7 -27.10810471 5.19860554 C-23.33718297 3.05457177 -19.25024337 2.26612151 -15.0625 1.25 C-14.16853516 1.01667969 -13.27457031 0.78335937 -12.35351562 0.54296875 C-11.48533203 0.32769531 -10.61714844 0.11242187 -9.72265625 -0.109375 C-8.54328491 -0.40279785 -8.54328491 -0.40279785 -7.34008789 -0.70214844 C-4.66429822 -1.04272887 -2.61834423 -0.57691669 0 0 Z " fill="#6C1448" transform="translate(170,30)"/>
<path d="M0 0 C6.45529683 3.68874105 12.91059367 7.3774821 19.3658905 11.06622314 C19.99650894 11.42657654 20.62712738 11.78692993 21.27685547 12.15820312 C23.51790365 13.43880208 25.75895182 14.71940104 28 16 C28.11581082 29.08231571 28.20467366 42.16450962 28.25906086 55.24723339 C28.28516306 61.32198876 28.32057353 67.39639363 28.37719727 73.47094727 C28.43149324 79.33241029 28.46141584 85.19353601 28.47438622 91.05523109 C28.48363031 93.29239526 28.50168183 95.5295408 28.52865028 97.76656151 C28.5649074 100.89841082 28.56994659 104.02886351 28.56762695 107.16088867 C28.58560333 108.08733688 28.60357971 109.0137851 28.62210083 109.9683075 C28.58589526 114.48103285 28.51039289 116.36202598 25.60758972 119.99043274 C24.31683281 120.98516853 24.31683281 120.98516853 23 122 C21.86691406 122.98613281 21.86691406 122.98613281 20.7109375 123.9921875 C4.57261411 137 4.57261411 137 0 137 C-1.05040101 130.13150214 -1.14155191 123.40601524 -1.12939453 116.46533203 C-1.13114685 115.22867294 -1.13289917 113.99201385 -1.13470459 112.71788025 C-1.1383358 109.34847065 -1.13750771 105.97912294 -1.1343255 102.60971689 C-1.13178324 99.07793505 -1.13414432 95.54615574 -1.13571167 92.01437378 C-1.13752649 86.09160897 -1.13514361 80.16885666 -1.13037109 74.24609375 C-1.1249147 67.39542746 -1.12670385 60.54479088 -1.1321975 53.69412529 C-1.13673025 47.80608081 -1.13737883 41.91804528 -1.13475883 36.02999961 C-1.13319889 32.51560152 -1.13299488 29.00121742 -1.13629532 25.48682022 C-1.13971119 21.5773019 -1.13498173 17.66781713 -1.12939453 13.75830078 C-1.13141876 12.5905159 -1.13344299 11.42273102 -1.13552856 10.21955872 C-1.13270874 9.1597731 -1.12988892 8.09998749 -1.12698364 7.00808716 C-1.12660662 6.08377962 -1.12622959 5.15947208 -1.12584114 4.20715523 C-1 2 -1 2 0 0 Z " fill="#6A1445" transform="translate(275,206)"/>
<path d="M0 0 C0.33 0 0.66 0 1 0 C1 41.25 1 82.5 1 125 C-19 136 -19 136 -21 136 C-23.91245913 125.36811038 -25.95330157 114.98493812 -27 104 C-27.13535156 102.74960938 -27.27070312 101.49921875 -27.41015625 100.2109375 C-30.44670018 65.93638422 -20.49240197 29.28064303 -1 1 C-0.67 0.67 -0.34 0.34 0 0 Z " fill="#6C1446" transform="translate(61,99)"/>
<path d="M0 0 C2.37715196 1.24603894 4.75169058 2.4966793 7.125 3.75 C7.79015625 4.09804687 8.4553125 4.44609375 9.140625 4.8046875 C13.26946336 6.9905431 17.15716643 9.3423394 21 12 C18.99568802 23.42457826 14.26704195 33.9299202 8.875 44.125 C8.55063965 44.74004395 8.2262793 45.35508789 7.89208984 45.98876953 C5.90867275 49.63459405 3.68466604 52.83806 1 56 C0.34 55.67 -0.32 55.34 -1 55 C-1.0252899 47.48861406 -1.04284141 39.97723903 -1.05493164 32.46582031 C-1.05997017 29.90884999 -1.06680107 27.35188257 -1.07543945 24.79492188 C-1.08752602 21.12629483 -1.09323301 17.45770577 -1.09765625 13.7890625 C-1.10539818 12.0655809 -1.10539818 12.0655809 -1.11329651 10.30728149 C-1.11337204 9.2463327 -1.11344757 8.18538391 -1.11352539 7.09228516 C-1.115746 6.15518707 -1.11796661 5.21808899 -1.12025452 4.25259399 C-1 2 -1 2 0 0 Z " fill="#6C1448" transform="translate(328,237)"/>
<path d="M0 0 C2.475 0.99 2.475 0.99 5 2 C3.68 2.33 2.36 2.66 1 3 C1.00092179 3.77062995 1.00184359 4.5412599 1.00279331 5.33524227 C1.02500849 24.20416417 1.04148879 43.0730834 1.05181217 61.94201565 C1.0569389 71.067387 1.06391133 80.19274954 1.07543945 89.31811523 C1.08549828 97.2843144 1.09187967 105.25050719 1.09408849 113.21671253 C1.09537686 117.4233419 1.0983408 121.62995302 1.10573006 125.83657646 C1.13742443 144.5834634 0.98174248 163.2719272 0 182 C-0.33 182 -0.66 182 -1 182 C-1.02332634 158.41780371 -1.04097787 134.83560915 -1.05181217 111.25340366 C-1.05697569 100.30459267 -1.06401946 89.35578883 -1.07543945 78.40698242 C-1.08538458 68.86767269 -1.09185302 59.32836815 -1.09408849 49.78905338 C-1.09539589 44.73475977 -1.09848358 39.68048097 -1.10573006 34.62619209 C-1.11248757 29.87471216 -1.11461751 25.12325323 -1.11310768 20.37176895 C-1.11338413 18.62256316 -1.11539084 16.8733567 -1.11920547 15.12415504 C-1.12413854 12.74664852 -1.12299974 10.36922264 -1.12025452 7.99171448 C-1.12316736 7.29036568 -1.1260802 6.58901688 -1.12908131 5.86641508 C-1.11412121 1.11412121 -1.11412121 1.11412121 0 0 Z " fill="#66081A" transform="translate(222,176)"/>
<path d="M0 0 C-2.9826906 1.52448631 -5.818202 2.93940067 -9 4 C-9.33 48.88 -9.66 93.76 -10 140 C-8.35 139.67 -6.7 139.34 -5 139 C-7.475 140.98 -7.475 140.98 -10 143 C-10.66 142.67 -11.32 142.34 -12 142 C-12.09337499 123.92850483 -12.16394556 105.85707213 -12.20724869 87.78538799 C-12.22788808 79.39468518 -12.2560348 71.0041321 -12.30175781 62.61352539 C-12.34158365 55.30163135 -12.3674228 47.98984574 -12.37635398 40.67784625 C-12.38157601 36.80490215 -12.39387773 32.93226827 -12.42292023 29.05942345 C-12.45002248 25.41587436 -12.45845573 21.772764 -12.45243073 18.12912369 C-12.45405999 16.15081953 -12.47560994 14.17256342 -12.49768066 12.19438171 C-12.49218201 11.02069031 -12.48668335 9.8469989 -12.48101807 8.63774109 C-12.48470524 7.61547267 -12.48839241 6.59320425 -12.49219131 5.539958 C-12 3 -12 3 -10.09493637 1.19451618 C-6.41468296 -0.90393526 -4.05664858 -1.30392276 0 0 Z " fill="#5F0618" transform="translate(153,34)"/>
<path d="M0 0 C0 43.23 0 86.46 0 131 C-0.33 131 -0.66 131 -1 131 C-1.33 88.43 -1.66 45.86 -2 2 C-7.47825081 1.5527864 -7.47825081 1.5527864 -10 3 C-12.3329866 3.04022391 -14.66706666 3.04320247 -17 3 C-11.35754821 -0.29143021 -6.36130532 -1.27226106 0 0 Z " fill="#671322" transform="translate(170,30)"/>
<path d="M0 0 C0.33 0 0.66 0 1 0 C1 41.25 1 82.5 1 125 C-10 131 -10 131 -12 131 C-12 130.34 -12 129.68 -12 129 C-10.56705502 128.15885829 -9.12845595 127.32734313 -7.6875 126.5 C-6.48673828 125.80390625 -6.48673828 125.80390625 -5.26171875 125.09375 C-3 124 -3 124 0 124 C-0.33 85.06 -0.66 46.12 -1 6 C-1.66 5.67 -2.32 5.34 -3 5 C-1.125 1.125 -1.125 1.125 0 0 Z " fill="#6D1B29" transform="translate(61,99)"/>
<path d="M0 0 C3.3 1.65 6.6 3.3 10 5 C6 6 6 6 2 4 C2 18.52 2 33.04 2 48 C2.66 48 3.32 48 4 48 C5.32 45.03 6.64 42.06 8 39 C8.66 39 9.32 39 10 39 C10.103125 38.236875 10.20625 37.47375 10.3125 36.6875 C11.04364039 33.82940576 11.76951913 32.84257115 14 31 C13.39829509 35.66994856 11.41102948 39.42420186 9.1875 43.5 C8.84396484 44.15097656 8.50042969 44.80195313 8.14648438 45.47265625 C6.08248779 49.30634596 3.84509737 52.67539184 1 56 C0.34 55.67 -0.32 55.34 -1 55 C-1.0252899 47.48861406 -1.04284141 39.97723903 -1.05493164 32.46582031 C-1.05997017 29.90884999 -1.06680107 27.35188257 -1.07543945 24.79492188 C-1.08752602 21.12629483 -1.09323301 17.45770577 -1.09765625 13.7890625 C-1.10539818 12.0655809 -1.10539818 12.0655809 -1.11329651 10.30728149 C-1.11337204 9.2463327 -1.11344757 8.18538391 -1.11352539 7.09228516 C-1.115746 6.15518707 -1.11796661 5.21808899 -1.12025452 4.25259399 C-1 2 -1 2 0 0 Z " fill="#560428" transform="translate(328,237)"/>
<path d="M0 0 C0.66 0 1.32 0 2 0 C2 0.99 2 1.98 2 3 C2.99 3 3.98 3 5 3 C5.33 8.28 5.66 13.56 6 19 C5.34 19 4.68 19 4 19 C4 21.64 4 24.28 4 27 C3.34 26.67 2.68 26.34 2 26 C1.62109375 24.27734375 1.62109375 24.27734375 1.4375 21.9375 C1.3653125 21.05191406 1.293125 20.16632813 1.21875 19.25390625 C0.78737906 12.83726356 0.37438129 6.42024085 0 0 Z " fill="#6A1336" transform="translate(33,187)"/>
<path d="M0 0 C0.66 0.33 1.32 0.66 2 1 C1.2884375 1.6496875 1.2884375 1.6496875 0.5625 2.3125 C-1.23686957 4.02309613 -1.23686957 4.02309613 -2 7 C-1.34 7 -0.68 7 0 7 C0.26554687 8.14339844 0.53109375 9.28679687 0.8046875 10.46484375 C1.16102453 11.95583291 1.51781904 13.44671279 1.875 14.9375 C2.13603516 16.06961914 2.13603516 16.06961914 2.40234375 17.22460938 C2.87244065 19.16593545 3.4304297 21.08549544 4 23 C4.66 23.33 5.32 23.66 6 24 C7.1875 25.9375 7.1875 25.9375 8 28 C7.67 28.66 7.34 29.32 7 30 C7.66 30 8.32 30 9 30 C9.86627399 31.59766103 10.71766465 33.20339944 11.5625 34.8125 C12.03816406 35.70582031 12.51382813 36.59914063 13.00390625 37.51953125 C14 40 14 40 13 43 C8.54567128 36.0261916 4.91782786 28.91735456 1.6875 21.3125 C1.35041016 20.52963623 1.01332031 19.74677246 0.66601562 18.94018555 C-1.51614424 13.6881235 -2.90374648 8.58143292 -4 3 C-2.68 2.01 -1.36 1.02 0 0 Z " fill="#631424" transform="translate(47,246)"/>
<path d="M0 0 C1.258125 -0.020625 2.51625 -0.04125 3.8125 -0.0625 C4.52019531 -0.07410156 5.22789062 -0.08570313 5.95703125 -0.09765625 C8 0 8 0 11 1 C13.39490986 1.06970052 15.79167691 1.08448003 18.1875 1.0625 C19.45980469 1.05347656 20.73210937 1.04445313 22.04296875 1.03515625 C23.01878906 1.02355469 23.99460938 1.01195312 25 1 C25.33 1.66 25.66 2.32 26 3 C28.35599235 3.46751788 28.35599235 3.46751788 31.0625 3.625 C32.44115234 3.73714844 32.44115234 3.73714844 33.84765625 3.8515625 C34.55792969 3.90054687 35.26820313 3.94953125 36 4 C36 4.33 36 4.66 36 5 C28.57837754 5.46928292 21.39822262 4.65427727 14.0625 3.625 C12.67671753 3.43587036 12.67671753 3.43587036 11.26293945 3.24291992 C10.383396 3.11377197 9.50385254 2.98462402 8.59765625 2.8515625 C7.41441772 2.67874756 7.41441772 2.67874756 6.20727539 2.50244141 C3.89502184 1.97610385 2.06895078 1.14374784 0 0 Z " fill="#67162B" transform="translate(156,359)"/>
<path d="M0 0 C0.5775 0.20625 1.155 0.4125 1.75 0.625 C1.75 1.945 1.75 3.265 1.75 4.625 C2.575 4.8725 3.4 5.12 4.25 5.375 C8.27373471 6.81204811 11.96979024 8.64854515 15.75 10.625 C15.75 11.285 15.75 11.945 15.75 12.625 C16.41 12.625 17.07 12.625 17.75 12.625 C17.42 13.285 17.09 13.945 16.75 14.625 C9.16 10.335 1.57 6.045 -6.25 1.625 C-2.25 -0.375 -2.25 -0.375 0 0 Z " fill="#681227" transform="translate(260.25,178.375)"/>
<path d="M0 0 C1 3 1 3 0.35083008 4.82177734 C-0.00599854 5.4864502 -0.36282715 6.15112305 -0.73046875 6.8359375 C-1.12169922 7.57070313 -1.51292969 8.30546875 -1.91601562 9.0625 C-2.33560547 9.825625 -2.75519531 10.58875 -3.1875 11.375 C-3.58775391 12.13039063 -3.98800781 12.88578125 -4.40039062 13.6640625 C-6.61596223 17.77202671 -8.92761207 21.4543937 -12 25 C-12.66 24.67 -13.32 24.34 -14 24 C-13.34 23.34 -12.68 22.68 -12 22 C-11.35232207 19.42938689 -11.35232207 19.42938689 -11 17 C-10.34 17 -9.68 17 -9 17 C-7.68 14.03 -6.36 11.06 -5 8 C-4.34 8 -3.68 8 -3 8 C-2.87625 7.236875 -2.7525 6.47375 -2.625 5.6875 C-2 3 -2 3 0 0 Z " fill="#5F121F" transform="translate(341,268)"/>
<path d="M0 0 C-0.33 1.32 -0.66 2.64 -1 4 C-4.28696233 4.79953138 -5.71023192 5.09658936 -9 4 C-9 4.66 -9 5.32 -9 6 C-12.22791555 8.1519437 -13.28400809 8.20086443 -17 8 C-5.65178571 -1.88392857 -5.65178571 -1.88392857 0 0 Z " fill="#6B153D" transform="translate(85,227)"/>
<path d="M0 0 C8.11593505 2.08852505 15.47056459 5.35329853 23 9 C19.59605919 9.95397067 17.43045321 10.05552406 14 9 C12.9805881 8.01979625 11.97753644 7.02196992 11 6 C10.01 6 9.02 6 8 6 C7.67 5.34 7.34 4.68 7 4 C3.97065509 3.34227572 3.97065509 3.34227572 1 3 C0.67 2.01 0.34 1.02 0 0 Z " fill="#681327" transform="translate(249,36)"/>
<path d="M0 0 C2.1737359 3.26060385 3.3454124 6.50376951 4.5625 10.1875 C4.78574951 10.85789307 5.00899902 11.52828613 5.23901367 12.21899414 C6.73731778 16.85312693 7.70312601 21.15105816 8 26 C5.70366176 22.55549263 5.45983515 20.06187717 5 16 C4.01 15.67 3.02 15.34 2 15 C1.7834375 13.2365625 1.7834375 13.2365625 1.5625 11.4375 C1.08589824 7.61787728 0.55546456 3.80889981 0 0 Z " fill="#641021" transform="translate(346,128)"/>
<path d="M0 0 C0.33 0 0.66 0 1 0 C2.15144911 8.72604207 1.95391219 15.67230405 -1 24 C-1.33 24 -1.66 24 -2 24 C-2.33853295 15.83759432 -1.29901921 8.04927976 0 0 Z " fill="#600F27" transform="translate(36,159)"/>
<path d="M0 0 C-0.33 0.99 -0.66 1.98 -1 3 C-2.65 3.33 -4.3 3.66 -6 4 C-6 4.66 -6 5.32 -6 6 C-6.763125 6.268125 -7.52625 6.53625 -8.3125 6.8125 C-10.99212054 7.78263638 -10.99212054 7.78263638 -12.4375 9.5625 C-14.71483967 11.6576525 -16.99709203 11.66634356 -20 12 C-17.98405311 9.86187451 -16.01104183 8.25292367 -13.49609375 6.73828125 C-12.83802734 6.34189453 -12.17996094 5.94550781 -11.50195312 5.53710938 C-10.82068359 5.13298828 -10.13941406 4.72886719 -9.4375 4.3125 C-8.75236328 3.89677734 -8.06722656 3.48105469 -7.36132812 3.05273438 C-2.2533867 0 -2.2533867 0 0 0 Z " fill="#691425" transform="translate(172,175)"/>
<path d="M0 0 C0.33 0 0.66 0 1 0 C1 9.57 1 19.14 1 29 C0.67 29 0.34 29 0 29 C-0.33 21.41 -0.66 13.82 -1 6 C-1.66 5.67 -2.32 5.34 -3 5 C-1.125 1.125 -1.125 1.125 0 0 Z " fill="#77242E" transform="translate(61,99)"/>
<path d="M0 0 C0.66 0.33 1.32 0.66 2 1 C-0.46309056 3.6038386 -2.65275992 5.79481268 -5.75 7.625 C-8.31074335 8.85790128 -8.31074335 8.85790128 -9 12 C-10.32 12 -11.64 12 -13 12 C-13 12.66 -13 13.32 -13 14 C-13.66 13.67 -14.32 13.34 -15 13 C-10.43369266 8.12927217 -5.25023461 4.10843602 0 0 Z " fill="#601425" transform="translate(102,56)"/>
<path d="M0 0 C0.66 0.33 1.32 0.66 2 1 C0.70024676 7.71539173 -1.29928888 13.72019113 -4 20 C-5.11017502 16.66947495 -4.87254667 15.25587782 -4.1875 11.875 C-3.93033203 10.54082031 -3.93033203 10.54082031 -3.66796875 9.1796875 C-3.44753906 8.46039063 -3.22710937 7.74109375 -3 7 C-2.34 6.67 -1.68 6.34 -1 6 C-0.34227572 2.97065509 -0.34227572 2.97065509 0 0 Z " fill="#5F1321" transform="translate(347,248)"/>
<path d="M0 0 C-0.33 1.65 -0.66 3.3 -1 5 C-4.7910119 3.55049545 -8.3874638 1.84827434 -12 0 C-7.89962722 -3.07527959 -4.53236941 -1.35971082 0 0 Z " fill="#6A1431" transform="translate(304,202)"/>
<path d="M0 0 C0.33 0.66 0.66 1.32 1 2 C0.34 2 -0.32 2 -1 2 C-1 2.66 -1 3.32 -1 4 C-2.010625 4.4125 -3.02125 4.825 -4.0625 5.25 C-6.77610426 6.3948878 -9.24146938 7.70958034 -11.75 9.25 C-12.8225 9.8275 -13.895 10.405 -15 11 C-15.99 10.67 -16.98 10.34 -18 10 C-12.06 6.7 -6.12 3.4 0 0 Z " fill="#671324" transform="translate(67,235)"/>
<path d="M0 0 C0.33 0 0.66 0 1 0 C0.57910004 5.60461531 0.08386889 10.72086547 -2 16 C-4.86724686 15.42655063 -5.8614515 15.1385485 -8 13 C-6.35 13 -4.7 13 -3 13 C-2.86722656 12.39671875 -2.73445313 11.7934375 -2.59765625 11.171875 C-2.42105469 10.37265625 -2.24445313 9.5734375 -2.0625 8.75 C-1.88847656 7.96109375 -1.71445312 7.1721875 -1.53515625 6.359375 C-1.052444 4.23121297 -0.53836822 2.11467158 0 0 Z " fill="#631322" transform="translate(354,219)"/>
<path d="M0 0 C1.508013 0.92455559 3.00624917 1.8650747 4.5 2.8125 C5.75296875 3.59560547 5.75296875 3.59560547 7.03125 4.39453125 C7.6809375 4.92433594 8.330625 5.45414062 9 6 C9 6.99 9 7.98 9 9 C6.66471585 8.82701599 5.30822418 8.29774631 3.62109375 6.66796875 C0 2.42788462 0 2.42788462 0 0 Z " fill="#691436" transform="translate(72,304)"/>
<path d="M0 0 C4.75 0.75 4.75 0.75 7 3 C7 3.66 7 4.32 7 5 C9.46326712 6.6446674 9.46326712 6.6446674 12 8 C11.01 8.495 11.01 8.495 10 9 C7.5249829 7.88568235 5.32116581 6.41849022 3 5 C3 4.01 3 3.02 3 2 C2.01 2 1.02 2 0 2 C0 1.34 0 0.68 0 0 Z " fill="#691031" transform="translate(227,161)"/>
<path d="M0 0 C0.66 0 1.32 0 2 0 C2 0.66 2 1.32 2 2 C2.66 2 3.32 2 4 2 C3 5 3 5 1.25 5.9375 C-2.13505099 6.03152919 -3.58792116 4.21107227 -6 2 C-4.35 2 -2.7 2 -1 2 C-0.67 1.34 -0.34 0.68 0 0 Z " fill="#691337" transform="translate(342,224)"/>
<path d="M0 0 C-1 3 -1 3 -2.9609375 4.203125 C-3.75757812 4.54859375 -4.55421875 4.8940625 -5.375 5.25 C-6.56222656 5.78367188 -6.56222656 5.78367188 -7.7734375 6.328125 C-10 7 -10 7 -13 6 C-11.21118264 4.99491199 -9.41885304 3.99607264 -7.625 3 C-6.62726563 2.443125 -5.62953125 1.88625 -4.6015625 1.3125 C-2 0 -2 0 0 0 Z " fill="#6A1627" transform="translate(105,214)"/>
<path d="M0 0 C0 0.99 0 1.98 0 3 C-1.11375 3.45375 -2.2275 3.9075 -3.375 4.375 C-6.96199008 5.72465986 -6.96199008 5.72465986 -9 8 C-11.125 7.625 -11.125 7.625 -13 7 C-11.21190303 5.82786955 -9.41940875 4.66244474 -7.625 3.5 C-6.62726563 2.8503125 -5.62953125 2.200625 -4.6015625 1.53125 C-2 0 -2 0 0 0 Z " fill="#6A1624" transform="translate(196,161)"/>
<path d="M0 0 C3.3 1.65 6.6 3.3 10 5 C6 6 6 6 3.75 5.0625 C2.88375 4.5365625 2.88375 4.5365625 2 4 C1.67 4.99 1.34 5.98 1 7 C0.34 6.67 -0.32 6.34 -1 6 C-0.67 4.02 -0.34 2.04 0 0 Z " fill="#5A081F" transform="translate(328,237)"/>
<path d="M0 0 C2.97 1.65 5.94 3.3 9 5 C8.01 5.33 7.02 5.66 6 6 C3.3125 4.5625 3.3125 4.5625 1 3 C1.66 4.32 2.32 5.64 3 7 C1.68 6.67 0.36 6.34 -1 6 C-0.67 4.02 -0.34 2.04 0 0 Z " fill="#5B1521" transform="translate(275,206)"/>
<path d="M0 0 C2.475 0.99 2.475 0.99 5 2 C3.68 2.33 2.36 2.66 1 3 C0.67 6.96 0.34 10.92 0 15 C-0.33 15 -0.66 15 -1 15 C-1.02685412 12.68756208 -1.04632841 10.3750373 -1.0625 8.0625 C-1.07410156 6.77472656 -1.08570313 5.48695313 -1.09765625 4.16015625 C-1 1 -1 1 0 0 Z " fill="#701319" transform="translate(222,176)"/>
<path d="M0 0 C0.33 0.66 0.66 1.32 1 2 C0.67 2.99 0.34 3.98 0 5 C0.38932856 7.14255793 0.38932856 7.14255793 1 9 C-0.32 9.33 -1.64 9.66 -3 10 C-3.75 8.375 -3.75 8.375 -4 6 C-2.0625 2.75 -2.0625 2.75 0 0 Z " fill="#671036" transform="translate(57,105)"/>
<path d="M0 0 C8.35010941 2.3107221 8.35010941 2.3107221 11.0625 5.1875 C11.371875 5.785625 11.68125 6.38375 12 7 C7.39104317 5.68315519 3.85859765 3.84801255 0 1 C0 0.67 0 0.34 0 0 Z " fill="#5F1228" transform="translate(109,338)"/>
<path d="M0 0 C0.99 0.33 1.98 0.66 3 1 C3.33 3.31 3.66 5.62 4 8 C2.02 7.01 0.04 6.02 -2 5 C-1.125 1.125 -1.125 1.125 0 0 Z " fill="#6A1438" transform="translate(220,154)"/>
<path d="M0 0 C0 0.99 0 1.98 0 3 C-0.66 3 -1.32 3 -2 3 C-2 3.66 -2 4.32 -2 5 C-5.22791555 7.1519437 -6.28400809 7.20086443 -10 7 C-6.80331012 4.3513141 -3.60513403 2.06007659 0 0 Z " fill="#661224" transform="translate(78,228)"/>
<path d="M0 0 C0.66 0.33 1.32 0.66 2 1 C1.01 1.33 0.02 1.66 -1 2 C-1.73323796 4.01508358 -1.73323796 4.01508358 -2 6 C-4.31 6 -6.62 6 -9 6 C-6.12050853 3.76039553 -3.23257974 1.70135776 0 0 Z " fill="#67142C" transform="translate(141,192)"/>
<path d="M0 0 C0.99 0.495 0.99 0.495 2 1 C2 2.65 2 4.3 2 6 C3.65 5.67 5.3 5.34 7 5 C5.35 6.32 3.7 7.64 2 9 C1.34 8.67 0.68 8.34 0 8 C0 5.36 0 2.72 0 0 Z " fill="#5C0E17" transform="translate(141,168)"/>
<path d="M0 0 C0.763125 0.309375 1.52625 0.61875 2.3125 0.9375 C4.18789677 1.67893593 6.08684652 2.36228217 8 3 C3.25 6 3.25 6 1 6 C0.67 4.02 0.34 2.04 0 0 Z " fill="#631422" transform="translate(274,337)"/>
<path d="M0 0 C-3.85756507 2.15305957 -6.55129785 3.39253254 -11 3 C-7.6562111 -0.84535724 -4.83651161 -1.55459302 0 0 Z " fill="#6E1327" transform="translate(153,34)"/>
<path d="M0 0 C1.12894876 0.93274109 2.25300876 1.87140122 3.375 2.8125 C4.00148438 3.33457031 4.62796875 3.85664062 5.2734375 4.39453125 C7 6 7 6 9 9 C5.18063472 7.44396229 2.73955562 5.04395069 0 2 C0 1.34 0 0.68 0 0 Z " fill="#671328" transform="translate(304,68)"/>
<path d="M0 0 C4.455 2.97 4.455 2.97 9 6 C7.68 6.33 6.36 6.66 5 7 C5 6.34 5 5.68 5 5 C3.68 4.67 2.36 4.34 1 4 C0.67 2.68 0.34 1.36 0 0 Z " fill="#631322" transform="translate(295,61)"/>
<path d="M0 0 C5.75 1.75 5.75 1.75 8 4 C5.50935112 4.68707555 3.62113708 5 1 5 C1.33 4.01 1.66 3.02 2 2 C1.01 1.67 0.02 1.34 -1 1 C-0.67 0.67 -0.34 0.34 0 0 Z " fill="#67122C" transform="translate(292,217)"/>
</svg>
